<?xml version="1.0" standalone="no"?>
<!DOCTYPE svg PUBLIC "-//W3C//DTD SVG 20010904//EN"
 "http://www.w3.org/TR/2001/REC-SVG-20010904/DTD/svg10.dtd">
<svg version="1.0" xmlns="http://www.w3.org/2000/svg"
 width="418.000000pt" height="418.000000pt" viewBox="0 0 418.000000 418.000000"
 preserveAspectRatio="xMidYMid meet">
<metadata>
Created by potrace 1.11, written by Peter Selinger 2001-2013
</metadata>
<g transform="translate(0.000000,418.000000) scale(0.100000,-0.100000)"
fill="#000000" stroke="none">
<path d="M1900 4168 c-820 -77 -1529 -641 -1784 -1419 -83 -252 -111 -454
-103 -724 8 -253 50 -467 137 -689 264 -676 853 -1161 1573 -1297 143 -27 461
-37 604 -19 482 60 904 263 1238 597 581 581 767 1438 480 2209 -327 874
-1215 1430 -2145 1342z m-343 -1064 c111 -29 201 -82 288 -169 134 -133 190
-271 190 -460 -1 -124 -18 -203 -66 -301 -46 -92 -112 -167 -352 -394 l-216
-205 333 -3 333 -2 28 -71 c56 -144 165 -274 300 -361 l60 -38 -735 2 -735 3
-57 28 c-71 35 -140 110 -167 183 -28 72 -28 175 -1 246 21 56 37 72 603 628
99 96 186 188 194 204 36 69 10 175 -55 224 -43 33 -142 43 -188 19 -48 -25
-86 -73 -99 -124 l-12 -48 -232 -3 -231 -2 0 53 c0 121 71 291 166 396 164
181 415 256 651 195z m1023 -689 c0 -752 0 -745 48 -798 66 -74 208 -74 274 0
48 53 48 46 48 798 l0 705 235 0 236 0 -3 -737 -3 -738 -24 -70 c-39 -117 -80
-184 -166 -270 -208 -209 -506 -254 -768 -118 -107 55 -222 173 -276 283 -71
146 -71 137 -71 938 l0 712 235 0 235 0 0 -705z m957 -1045 c46 -28 66 -72 60
-133 -3 -40 -11 -56 -41 -85 -34 -34 -41 -37 -96 -37 -55 0 -62 3 -96 36 -64
65 -55 171 19 218 42 27 112 27 154 1z"/>
<path d="M3392 1354 c-71 -49 -67 -170 8 -209 88 -46 180 13 180 116 0 33 -6
47 -34 75 -29 29 -41 34 -83 34 -28 0 -58 -7 -71 -16z m118 -44 c24 -24 24
-29 5 -58 -14 -19 -14 -24 1 -47 15 -24 15 -25 -3 -25 -11 0 -26 11 -33 25
-17 31 -38 32 -42 3 -2 -13 -10 -23 -18 -23 -11 0 -16 15 -18 59 -2 32 -1 65
2 72 8 22 82 18 106 -6z"/>
<path d="M3440 1280 c0 -15 7 -20 25 -20 18 0 25 5 25 20 0 15 -7 20 -25 20
-18 0 -25 -5 -25 -20z"/>
</g>
</svg>
